<svg aria-hidden="true" version='1.1' xmlns='http://www.w3.org/2000/svg' xmlnsXlink='http://www.w3.org/1999/xlink' display="none" >
    <defs>

        <symbol id="la-icon-chevron-right" viewBox="0 0 24 24">
            <path fill="currentColor" d="M16 12L10 18V6L16 12Z">
        </symbol>

        <symbol id="la-icon-telephone" viewBox="0 0 16 16">
            <path fill="currentColor" d="M1.885.511a1.745 1.745 0 0 1 2.61.163L6.29 2.98c.329.423.445.974.315 1.494l-.547 2.19a.68.68 0 0 0 .178.643l2.457 2.457a.68.68 0 0 0 .644.178l2.189-.547a1.75 1.75 0 0 1 1.494.315l2.306 1.794c.829.645.905 1.87.163 2.611l-1.034 1.034c-.74.74-1.846 1.065-2.877.702a18.6 18.6 0 0 1-7.01-4.42 18.6 18.6 0 0 1-4.42-7.009c-.362-1.03-.037-2.137.703-2.877z">
        </symbol>

        <symbol id="la-icon-email" viewBox="0 0 128 96">
            <path fill="currentColor" d="M0 11.283V8a8 8 0 0 1 8-8h112a8 8 0 0 1 8 8v3.283l-64 40zm66.12 48.11a4.004 4.004 0 0 1-4.24 0L0 20.717V88a8 8 0 0 0 8 8h112a8 8 0 0 0 8-8V20.717z">
        </symbol>

        <symbol id="la-icon-location" viewBox="0 0 16 16">
            <path fill="currentColor" d="M8 16s6-5.686 6-10A6 6 0 0 0 2 6c0 4.314 6 10 6 10m0-7a3 3 0 1 1 0-6 3 3 0 0 1 0 6">
        </symbol>

    </defs>
</svg>